<?xml version="1.0" encoding="UTF-8" standalone="no"?>
<svg id="svg8" version="1.1" viewBox="0 0 254 179.91667" height="680" width="960" xmlns="http://www.w3.org/2000/svg">
     <defs id="defs2">
          <filter style="color-interpolation-filters:sRGB;" id="filter32" x="-0.01662736" y="-0.10567572"
               width="1.0332446" height="1.2114158">
               <feFlood result="flood" in="SourceGraphic" flood-opacity="1.000000" flood-color="rgb(0,0,0)"
                    id="feFlood31" />
               <feGaussianBlur result="blur" in="SourceGraphic" stdDeviation="100" id="feGaussianBlur31" />
               <feOffset result="offset" in="blur" dx="0" dy="0" id="feOffset31" />
               <feComposite result="comp1" operator="in" in="flood" in2="offset" id="feComposite31" />
               <feComposite result="comp2" operator="over" in="SourceGraphic" in2="comp1" id="feComposite32" />
          </filter>
     </defs>
     <g id="layer1">
          <path d="M 91.354426,170.32202 V 145.27616 H 96.453171 V 166.06733 H 109.13113 V 170.32202 Z M 110.82046,170.32202 V 145.06945 H 115.9192 V 170.32202 Z M 117.69466,162.10546 L 122.6556,161.62315 Q 123.10347,164.12085 124.46428,165.29218 Q 125.84232,166.46351 128.16776,166.46351 Q 130.631,166.46351 131.87124,165.42998 Q 133.1287,164.37923 133.1287,162.98396 Q 133.1287,162.08824 132.59471,161.46812 Q 132.07794,160.83078 130.76881,160.36569 Q 129.87308,160.05563 126.68637,159.26326 Q 122.5867,158.24695 120.93305,156.76556 Q 118.60761,154.68128 118.60761,151.68404 Q 118.60761,149.75479 119.69282,148.08392 Q 120.79525,146.39582 122.84508,145.51732 Q 124.91214,144.63882 127.82325,144.63882 Q 132.57748,144.63882 134.97183,146.7231 Q 137.3834,148.80739 137.50397,152.28693 L 132.40523,152.51087 Q 132.07794,150.56439 130.99274,149.72034 Q 129.92476,148.85906 127.77157,148.85906 Q 125.54948,148.85906 124.29202,149.77201 Q 123.48243,150.35768 123.48243,151.33953 Q 123.48243,152.23526 124.24035,152.8726 Q 125.20497,153.6822 128.92568,154.5607 Q 132.64639,155.4392 134.42061,156.3866 Q 136.21206,157.31678 137.21114,158.9532 Q 138.22744,160.57239 138.22744,162.96674 Q 138.22744,165.13715 137.02166,167.03195 Q 135.81588,168.92676 133.61101,169.85693 Q 131.40615,170.76988 128.11608,170.76988 Q 123.3274,170.76988 120.7608,168.56502 Q 118.1942,166.34293 117.69466,162.10546 Z M 140.72637,170.32202 V 145.06945 H 148.90848 Q 153.55936,145.06945 154.97185,145.44842 Q 157.14226,146.01686 158.60643,147.92889 Q 160.07059,149.82369 160.07059,152.83815 Q 160.07059,155.16359 159.22654,156.74834 Q 158.3825,158.33308 157.07336,159.24603 Q 155.78145,160.14176 154.43786,160.43459 Q 152.61196,160.79633 149.14963,160.79633 H 145.82511 V 170.32202 Z M 145.82511,149.34138 V 156.50718 H 148.61564 Q 151.6301,156.50718 152.64641,156.11099 Q 153.66271,155.71481 154.23115,154.87076 Q 154.81682,154.02671 154.81682,152.90705 Q 154.81682,151.52901 154.00722,150.63329 Q 153.19762,149.73756 151.95739,149.51363 Q 151.04444,149.34138 148.28836,149.34138 Z"
               fill="white" style="filter:url(#filter32)" 
               aria-label="LISP" />
     </g>
</svg>
