<?xml version="1.0" encoding="UTF-8" standalone="no"?>
<svg
     id="svg8"
     version="1.1"
     viewBox="0 0 254 179.91667"
     height="680"
     width="960"
     xmlns="http://www.w3.org/2000/svg"
     xmlns:svg="http://www.w3.org/2000/svg">
    <defs
         id="defs2">
        <filter
             style="color-interpolation-filters:sRGB;"
             id="filter32"
             x="-3.492628"
             y="-9.1844724"
             width="7.985256"
             height="19.368945">
            <feFlood
                 result="flood"
                 in="SourceGraphic"
                 flood-opacity="1.000000"
                 flood-color="rgb(0,0,0)"
                 id="feFlood31" />
            <feGaussianBlur
                 result="blur"
                 in="SourceGraphic"
                 stdDeviation="100"
                 id="feGaussianBlur31" />
            <feOffset
                 result="offset"
                 in="blur"
                 dx="0"
                 dy="0"
                 id="feOffset31" />
            <feComposite
                 result="comp1"
                 operator="in"
                 in="flood"
                 in2="offset"
                 id="feComposite31" />
            <feComposite
                 result="comp2"
                 operator="over"
                 in="SourceGraphic"
                 in2="comp1"
                 id="feComposite32" />
        </filter>
    </defs>
    <g
         id="layer1">
        <path
             d="M 72.706841,170.42558 V 145.17302 H 80.888949 Q 85.539831,145.17302 86.952321,145.55198 Q 89.122732,146.12042 90.586899,148.03245 Q 92.051066,149.92725 92.051066,152.94171 Q 92.051066,155.26715 91.207017,156.8519 Q 90.362968,158.43664 89.05383,159.34959 Q 87.761919,160.24532 86.418331,160.53815 Q 84.592429,160.89989 81.130106,160.89989 H 77.805586 V 170.42558 Z M 77.805586,149.44494 V 156.61074 H 80.596115 Q 83.610576,156.61074 84.62688,156.21455 Q 85.643184,155.81837 86.211625,154.97432 Q 86.797291,154.13027 86.797291,153.01061 Q 86.797291,151.63257 85.987693,150.73685 Q 85.178095,149.84112 83.93786,149.61719 Q 83.024909,149.44494 80.268831,149.44494 Z M 100.40744,170.42558 H 95.567077 V 152.13211 H 100.06293 V 154.73316 Q 101.21704,152.89004 102.12999,152.30437 Q 103.06017,151.7187 104.2315,151.7187 Q 105.88515,151.7187 107.41821,152.63165 L 105.9196,156.8519 Q 104.69659,156.05953 103.64583,156.05953 Q 102.62953,156.05953 101.92328,156.62797 Q 101.21704,157.17918 100.80363,158.64335 Q 100.40744,160.10751 100.40744,164.77562 Z M 107.95422,161.02047 Q 107.95422,158.6089 109.14277,156.35236 Q 110.33133,154.09582 112.50174,152.90726 Q 114.68938,151.7187 117.37656,151.7187 Q 121.5279,151.7187 124.18063,154.4231 Q 126.83335,157.11028 126.83335,161.22717 Q 126.83335,165.37851 124.14617,168.11737 Q 121.47622,170.83899 117.41101,170.83899 Q 114.89609,170.83899 112.6051,169.70211 Q 110.33133,168.56523 109.14277,166.37759 Q 107.95422,164.17273 107.95422,161.02047 Z M 112.91516,161.27885 Q 112.91516,164.00048 114.20707,165.44742 Q 115.49898,166.89436 117.39378,166.89436 Q 119.28859,166.89436 120.56327,165.44742 Q 121.85518,164.00048 121.85518,161.2444 Q 121.85518,158.55722 120.56327,157.11028 Q 119.28859,155.66334 117.39378,155.66334 Q 115.49898,155.66334 114.20707,157.11028 Q 112.91516,158.55722 112.91516,161.27885 Z M 130.19434,170.42558 V 145.17302 H 135.0347 V 170.42558 Z M 138.44736,161.02047 Q 138.44736,158.6089 139.63592,156.35236 Q 140.82447,154.09582 142.99489,152.90726 Q 145.18252,151.7187 147.8697,151.7187 Q 152.02104,151.7187 154.67377,154.4231 Q 157.32649,157.11028 157.32649,161.22717 Q 157.32649,165.37851 154.63932,168.11737 Q 151.96937,170.83899 147.90415,170.83899 Q 145.38923,170.83899 143.09824,169.70211 Q 140.82447,168.56523 139.63592,166.37759 Q 138.44736,164.17273 138.44736,161.02047 Z M 143.4083,161.27885 Q 143.4083,164.00048 144.70021,165.44742 Q 145.99212,166.89436 147.88692,166.89436 Q 149.78173,166.89436 151.05641,165.44742 Q 152.34833,164.00048 152.34833,161.2444 Q 152.34833,158.55722 151.05641,157.11028 Q 149.78173,155.66334 147.88692,155.66334 Q 145.99212,155.66334 144.70021,157.11028 Q 143.4083,158.55722 143.4083,161.27885 Z M 160.23961,171.63137 L 165.76899,172.30316 Q 165.9068,173.26779 166.40634,173.62952 Q 167.09536,174.14629 168.57675,174.14629 Q 170.47155,174.14629 171.41895,173.57785 Q 172.0563,173.19889 172.38358,172.35484 Q 172.60751,171.75195 172.60751,170.13275 V 167.4628 Q 170.4371,170.42558 167.12981,170.42558 Q 163.44355,170.42558 161.29037,167.30777 Q 159.60227,164.84452 159.60227,161.1755 Q 159.60227,156.57629 161.80713,154.1475 Q 164.02922,151.7187 167.31929,151.7187 Q 170.71271,151.7187 172.91757,154.69871 V 152.13211 H 177.44787 V 168.548 Q 177.44787,171.7864 176.91388,173.38837 Q 176.37989,174.99034 175.41527,175.90329 Q 174.45064,176.81624 172.83144,177.333 Q 171.22947,177.84977 168.76623,177.84977 Q 164.11535,177.84977 162.16887,176.2478 Q 160.22239,174.66305 160.22239,172.21703 Q 160.22239,171.97588 160.23961,171.63137 Z M 164.56321,160.89989 Q 164.56321,163.811 165.68287,165.17181 Q 166.81975,166.5154 168.47339,166.5154 Q 170.24762,166.5154 171.47063,165.13736 Q 172.69364,163.74209 172.69364,161.02047 Q 172.69364,158.17826 171.52231,156.80022 Q 170.35097,155.42218 168.55952,155.42218 Q 166.81975,155.42218 165.68287,156.783 Q 164.56321,158.12658 164.56321,160.89989 Z"
             id="text1"
             style="font-weight:bold;font-size:35.2778px;line-height:1.25;font-family:Arial;-inkscape-font-specification:'Arial, Bold';font-variant-ligatures:none;letter-spacing:-0.428625px;word-spacing:0px;fill:#ffffff;stroke-width:0.264583"
             aria-label="Prolog" />
    </g>
</svg>
