<?xml version="1.0" encoding="UTF-8" standalone="no"?>
<svg id="svg8" version="1.1" viewBox="0 -100 1600 1500" height="680" width="960" xmlns="http://www.w3.org/2000/svg"
  xmlns:svg="http://www.w3.org/2000/svg">
  <defs id="defs2">
    <filter style="color-interpolation-filters:sRGB;" id="filter32" x="-0.24539877" y="-0.16748081" width="1.4907975"
      height="1.3349616">
      <feFlood result="flood" in="SourceGraphic" flood-opacity="1.000000" flood-color="rgb(0,0,0)" id="feFlood31" />
      <feGaussianBlur result="blur" in="SourceGraphic" stdDeviation="100" id="feGaussianBlur31" />
      <feOffset result="offset" in="blur" dx="0" dy="0" id="feOffset31" />
      <feComposite result="comp1" operator="in" in="flood" in2="offset" id="feComposite31" />
      <feComposite result="comp2" operator="over" in="SourceGraphic" in2="comp1" id="feComposite32" />
    </filter>
  </defs>
  <g style="stroke-width:4.90244;filter:url(#filter32);fill:#ffffff;fill-opacity:1" id="g1"
    transform="matrix(0.20398015,0,0,0.20398015,680.23434,1048.2365)">
    <path fill="white"
      d="M 967,288 H 1003 C 1003,182.66667 986,106 952,58 C 918,10 875,-14 823,-14 C 781,-14 740.66667,1.6666667 702,33 C 663.33333,64.333333 628.66667,149.33333 598,288 L 512,676 L 214,0 H 25 L 453,922 C 430.33333,1041.3333 403,1129.6667 371,1187 C 339,1244.3333 299.33333,1273 252,1273 C 214,1273 181,1258.6667 153,1230 C 125,1201.3333 109,1156.3333 105,1095 H 69 C 71,1193 90.666667,1271.3333 128,1330 C 165.33333,1388.6667 212,1418.3333 268,1419 C 304,1419 338,1404.3333 370,1375 C 402,1345.6667 430,1295 454,1223 C 478,1151 515,1002.3333 565,777 L 636,460 C 664.66667,328.66667 694.66667,241 726,197 C 757.33333,153 795.33333,130.66667 840,130 C 914.66667,130 957,182.66667 967,288 Z"
      id="path10" style="fill:#ffffff;stroke-width:14.599;fill-opacity:1" />
  </g>
</svg>
