<?xml version="1.0" encoding="UTF-8" standalone="no"?>
<svg
     viewBox="0 0 100 100"
     version="1.1"
     id="svg1"
     sodipodi:docname="favicon.svg"
     inkscape:version="1.4 (86a8ad7, 2024-10-11)"
     xmlns:inkscape="http://www.inkscape.org/namespaces/inkscape"
     xmlns:sodipodi="http://sodipodi.sourceforge.net/DTD/sodipodi-0.dtd"
     xmlns:xlink="http://www.w3.org/1999/xlink"
     xmlns="http://www.w3.org/2000/svg"
     xmlns:svg="http://www.w3.org/2000/svg">
    <defs
         id="defs1">
        <linearGradient
             id="linearGradient19"
             inkscape:collect="always">
            <stop
                 style="stop-color:#ffffff;stop-opacity:1;"
                 offset="0"
                 id="stop19" />
            <stop
                 style="stop-color:#44a144;stop-opacity:1;"
                 offset="1"
                 id="stop20" />
        </linearGradient>
        <rect
             x="17.28312"
             y="27.639543"
             width="46.200403"
             height="52.454607"
             id="rect18" />
        <linearGradient
             id="linearGradient17"
             inkscape:collect="always">
            <stop
                 style="stop-color:#3eb9d2;stop-opacity:1;"
                 offset="0"
                 id="stop18" />
            <stop
                 style="stop-color:#ffffff;stop-opacity:1;"
                 offset="1"
                 id="stop17" />
        </linearGradient>
        <linearGradient
             inkscape:collect="always"
             xlink:href="#linearGradient17"
             id="linearGradient18"
             x1="49.773437"
             y1="50"
             x2="75.541016"
             y2="50"
             gradientUnits="userSpaceOnUse"
             gradientTransform="matrix(1.3014617,0,0,1.3014617,-15.440382,-15.465015)" />
        <linearGradient
             inkscape:collect="always"
             xlink:href="#linearGradient19"
             id="linearGradient20"
             x1="16.392578"
             y1="49.608398"
             x2="53.166016"
             y2="49.608398"
             gradientUnits="userSpaceOnUse" />
    </defs>
    <sodipodi:namedview
         id="namedview1"
         pagecolor="#505050"
         bordercolor="#ffffff"
         borderopacity="1"
         inkscape:showpageshadow="0"
         inkscape:pageopacity="0"
         inkscape:pagecheckerboard="1"
         inkscape:deskcolor="#d1d1d1"
         showgrid="false"
         inkscape:zoom="4"
         inkscape:cx="170"
         inkscape:cy="150.625"
         inkscape:current-layer="svg1" />
    <circle
         cx="50"
         cy="50"
         r="50"
         fill="brown"
         id="circle1" />
    <path
         d="M 49.766392,60.356591 H 50.233607 L 56.618873,36.295039 Q 58.64347,28.508128 62.848401,25.626972 Q 67.053333,22.745815 75.541065,22.745815 V 77.254187 H 68.221369 V 30.99994 Q 66.196773,31.8565 65.106605,33.413882 Q 64.094307,34.971264 63.159878,38.086028 L 53.42624,71.491873 H 46.573759 L 36.762252,38.086028 Q 35.827823,34.893395 34.815524,33.413882 Q 33.803226,31.8565 31.778629,30.99994 V 77.254187 H 24.458934 V 22.745815 Q 32.946666,22.745815 37.073728,25.704841 Q 41.27866,28.585998 43.381126,36.295039 Z"
         id="text1"
         style="font-size:77.8691px;font-family:Baumans;-inkscape-font-specification:'Baumans, Normal';text-anchor:middle;display:none;fill:#ffffff"
         aria-label="M"
         sodipodi:insensitive="true" />
    <path
         d="M 49.766392,60.356591 H 50.233607 L 56.618873,36.295039 Q 58.64347,28.508128 62.848401,25.626972 Q 67.053333,22.745815 75.541065,22.745815 V 77.254187 H 68.221369 V 30.99994 Q 66.196773,31.8565 65.106605,33.413882 Q 64.094307,34.971264 63.159878,38.086028 L 53.42624,71.491873 H 46.573759 L 36.762252,38.086028 Q 35.827823,34.893395 34.815524,33.413882 Q 33.803226,31.8565 31.778629,30.99994 V 77.254187 H 24.458934 V 22.745815 Q 32.946666,22.745815 37.073728,25.704841 Q 41.27866,28.585998 43.381126,36.295039 Z"
         id="path3"
         style="font-size:77.8691px;font-family:Baumans;-inkscape-font-specification:'Baumans, Normal';text-anchor:middle;display:none;fill:#ffffff"
         aria-label="M"
         sodipodi:insensitive="true" />
    <path
         id="path4"
         style="font-size:77.8691px;font-family:Baumans;-inkscape-font-specification:'Baumans, Normal';text-anchor:middle;fill:url(#linearGradient20);stroke-width:0.999997"
         d="M 16.392578,14.138672 V 85.078125 H 25.919922 V 24.880859 V 15.082031 C 23.205028,14.455335 20.031026,14.138672 16.392578,14.138672 Z M 25.919922,15.082031 V 24.880859 C 27.672796,25.623853 28.994034,26.672159 29.871094,28.021484 C 30.749407,29.30517 31.593549,31.331503 32.404297,34.101562 L 45.173828,77.580078 H 53.166016 C 49.664357,64.443366 46.061325,50.915292 40.625,30.466797 C 38.809163,24.494819 36.212104,20.318977 32.810547,17.988281 C 31.000526,16.69053 28.696804,15.723784 25.919922,15.082031 Z"
         sodipodi:nodetypes="ccccccccccccccc" />
    <path
         d="M 54.09123,77.579335 L 66.760147,34.102378 C 67.570896,31.39988 68.416129,29.373358 69.294439,28.02211 C 70.240314,26.670861 71.589631,25.623487 73.346256,24.880301 V 85.077991 H 82.873363 V 14.138157 C 75.509059,14.138157 70.001813,15.387677 66.353442,17.887487 C 62.705069,20.387297 60.00389,25.015193 58.247265,31.771438 L 50.080642,62.541462 Z"
         style="font-size:77.8691px;font-family:Baumans;-inkscape-font-specification:'Baumans, Normal';text-anchor:middle;display:inline;fill:url(#linearGradient18);stroke-width:0.999997"
         id="path9"
         sodipodi:nodetypes="cccccccsccc" />
</svg>
